<svg xmlns="http://www.w3.org/2000/svg" viewBox="0 0 625.33 625.32"><defs><style>.cls-1{fill:#363d53;}.cls-2{fill:#ccc;}</style></defs><title>Asset 1</title><g id="Layer_2" data-name="Layer 2"><g id="Objects"><path class="cls-1" d="M312.66,625.32A312.65,312.65,0,0,1,91.58,91.58,312.66,312.66,0,1,1,533.75,533.75,310.62,310.62,0,0,1,312.66,625.32Zm0-557.13c-134.8,0-244.47,109.67-244.47,244.47S177.86,557.13,312.66,557.13,557.13,447.46,557.13,312.66,447.46,68.19,312.66,68.19Z"/><path class="cls-2" d="M312.66,6.53C143.86,6.53,6.53,143.86,6.53,312.66S143.86,618.8,312.66,618.8,618.8,481.46,618.8,312.66,481.46,6.53,312.66,6.53Zm0,557.13c-138.4,0-251-112.6-251-251s112.59-251,251-251,251,112.6,251,251S451.06,563.66,312.66,563.66Z"/><path class="cls-1" d="M312.66,608.64c-163.2,0-296-132.78-296-296s132.78-296,296-296,296,132.78,296,296S475.87,608.64,312.66,608.64Zm0-557.13c-144,0-261.15,117.15-261.15,261.15S168.66,573.82,312.66,573.82,573.82,456.66,573.82,312.66,456.66,51.51,312.66,51.51Z"/><circle class="cls-2" cx="312.66" cy="312.66" r="278.57" transform="translate(-129.51 312.66) rotate(-45)"/><path class="cls-1" d="M193.89,125.14l-7.82,5.92,5.69,7.51c2.85,3.76,2.22,6.37-.41,8.36s-5.31,1.89-8.16-1.87l-21.51-28.42c-2.85-3.76-2.28-6.44.36-8.43s5.36-1.82,8.21,1.94l4.27,5.64,7.82-5.92-3.87-5.11c-6.38-8.42-14.23-10.05-22.35-3.9s-8.69,14.15-2.32,22.57l20.72,27.37c6.38,8.42,14.23,10,22.35,3.9s8.69-14.15,2.32-22.57Z"/><polygon class="cls-1" points="213.57 68.44 225.13 94.27 214.37 99.09 202.81 73.27 193.34 77.5 220.32 137.76 229.79 133.52 218.23 107.69 228.99 102.88 240.55 128.7 250.19 124.38 223.21 64.13 213.57 68.44"/><rect class="cls-1" x="255.08" y="54.73" width="10.37" height="66.01" transform="translate(-13.38 64.21) rotate(-13.72)"/><path class="cls-1" d="M314.29,89.25l-9.79.65.62,9.41c.31,4.7-1.65,6.53-4.94,6.75s-5.48-1.34-5.79-6l-2.34-35.57c-.31-4.71,1.64-6.63,4.94-6.85s5.48,1.44,5.79,6.14l.47,7.06,9.78-.65-.42-6.39c-.69-10.54-6.36-16.22-16.53-15.55s-15,7-14.34,17.58L284,100c.69,10.54,6.36,16.21,16.52,15.54s15-7,14.35-17.58Z"/><path class="cls-1" d="M327.05,114.11l9.39,1.64,3.82-11.5,12.54,2.19-.29,12.11,10.32,1.8.93-66.86-15-2.61ZM353,97.37l-9.85-1.72,10.66-32Z"/><path class="cls-1" d="M399.58,105.37l4.33,1.87-4.84,11.17c-1.87,4.32-4.45,5.06-7.48,3.75s-4.25-3.7-2.38-8l14.16-32.72c1.87-4.33,4.49-5.14,7.51-3.83s4.23,3.78,2.36,8.1l-2.82,6.5,9,3.89L422,90.19c4.2-9.69,1.75-17.32-7.6-21.37s-16.59-.6-20.79,9.09L380,109.41c-4.19,9.69-1.75,17.33,7.6,21.37s16.59.61,20.79-9.08l8.31-19.22-13.33-5.76Z"/><path class="cls-1" d="M465.2,97.87c-8.24-6-16.29-4.38-22.5,4.16l-20.2,27.76c-6.21,8.55-5.26,16.7,3,22.7s16.29,4.38,22.5-4.16l20.2-27.77C474.38,112,473.43,103.87,465.2,97.87Zm-5,16.06-21,28.83c-2.78,3.81-5.51,4-8.18,2.1s-3.29-4.61-.52-8.43l21-28.83c2.78-3.81,5.51-4,8.18-2.1S462.94,110.11,460.17,113.93Z"/><rect class="cls-1" x="143.72" y="495.38" width="66.02" height="10.38" transform="translate(-336.21 363.83) rotate(-55.63)"/><polygon class="cls-1" points="209.39 482.55 179.8 541.57 204.33 553.87 208.56 545.44 193.3 537.78 218.66 487.2 209.39 482.55"/><polygon class="cls-1" points="253.13 501.15 243.18 498.22 224.55 561.56 250.88 569.31 253.54 560.26 237.17 555.44 253.13 501.15"/><rect class="cls-1" x="245.65" y="535.37" width="66.02" height="10.37" transform="translate(-296.23 738.95) rotate(-81.77)"/><polygon class="cls-1" points="324.48 509.77 325.36 549.28 313.82 510.01 300.81 510.3 302.28 576.31 311.62 576.1 310.55 528.29 324.53 575.81 335.19 575.57 333.72 509.57 324.48 509.77"/><path class="cls-1" d="M381.24,515.5c-2.55-10.25-9.41-14.76-19.29-12.3s-13.82,9.67-11.27,19.92l8.3,33.3c2.56,10.25,9.41,14.76,19.3,12.3s13.82-9.67,11.26-19.92ZM376,559.57c-3.21.8-5.65-.44-6.79-5L360.59,520c-1.14-4.57.44-6.81,3.64-7.61s5.65.44,6.79,5L379.64,552C380.78,556.53,379.2,558.77,376,559.57Z"/><rect class="cls-1" x="400.32" y="491.12" width="10.38" height="66.03" transform="translate(-172.09 199.28) rotate(-22.92)"/><path class="cls-1" d="M459.43,514.49c-9.79-16.12-28.45-7.77-35.5-19.38-2.45-4-1.76-6.54,1.06-8.25s5.36-1.16,7.81,2.87l1.42,2.33L442.6,487l-1.07-1.77c-5.49-9-13.06-11.49-21.68-6.25s-9.93,13.09-4.44,22.11c9.79,16.13,28.45,7.77,35.5,19.38,2.45,4,1.55,6.56-1.27,8.27s-5.47,1.35-7.92-2.68l-2.45-4-8.38,5.1,2.1,3.46c5.49,9,13.13,11.45,21.84,6.16S464.92,523.52,459.43,514.49Z"/><path class="cls-1" d="M591.69,294.7v-24H490.63a182.86,182.86,0,0,0-355.93,0h-103v24h99q-.39,4-.6,8H31.69v22h98.57q.28,4.53.81,9H31.69v23H135.21a182.85,182.85,0,0,0,354.91,0H591.69v-23H494.26q.51-4.47.81-9h96.62v-22H495.2c-.14-2.68-.35-5.35-.61-8Z"/><path class="cls-2" d="M414,269.75c0-27.82,14.9-48.16,15-48.34l2.47-3.27-1.22-3.91a71.37,71.37,0,0,0-10.9-20.46,156.94,156.94,0,0,0-15.19-16.46l-4.46-4.11-5.15,3.18c-.07.05-7.27,4.36-15.43,4.36a18.46,18.46,0,0,1-8.09-1.76,63.82,63.82,0,0,1-20.32-15.64l-5.34-6.86-6.38,5.9c-3.83,3.54-16,12.74-26.33,12.8s-22.58-9.27-26.43-12.8l-6.38-5.9-5.34,6.86A63.91,63.91,0,0,1,254.24,179a18.48,18.48,0,0,1-8.1,1.76c-8.13,0-15.38-4.33-15.42-4.36l-5.16-3.19-4.45,4.12a156.94,156.94,0,0,0-15.19,16.46A71.37,71.37,0,0,0,195,214.23l-1.2,3.91,2.44,3.27c.15.2,15.12,20.53,15.12,48.34,0,13.32-3.33,25.06-7.18,38.66-4.47,15.81-9.54,33.72-9.54,56.88,0,43.48,32.59,54.39,64.1,64.94,2.85.95,5.73,1.92,8.62,2.91,27.38,9.44,38.86,30,39,30.27l7.19,13.43,7-13.61c.43-.84,10.84-20.67,38.16-30.09,2.77-.95,5.52-1.88,8.23-2.79,31.4-10.54,63.87-21.44,63.87-65.06,0-23.17-5.1-41.08-9.6-56.89C417.36,294.81,414,283.07,414,269.75ZM361.88,415.22c-2.76.93-5.56,1.86-8.36,2.83a89,89,0,0,0-40.22,27.69,92.45,92.45,0,0,0-40.72-27.69c-2.93-1-5.86-2-8.75-2.95-34-11.38-53.21-19.31-53.21-49.81,0-21,4.54-37,8.94-52.53,4-14.13,7.78-27.47,7.78-43,0-26-10.72-46.13-15.78-54.17a53.94,53.94,0,0,1,6.91-12,134.23,134.23,0,0,1,9.59-10.79,47.44,47.44,0,0,0,18.08,3.87,34.17,34.17,0,0,0,15.06-3.37,81.12,81.12,0,0,0,20.34-14.17c15.5,11.52,29.37,12,31.17,12,12.36-.07,24.09-7,31-12a81.18,81.18,0,0,0,20.4,14.23,34.23,34.23,0,0,0,15.06,3.37,47.45,47.45,0,0,0,18.09-3.87,136.2,136.2,0,0,1,9.59,10.79,54,54,0,0,1,6.91,12c-5,8-15.7,28.14-15.7,54.16,0,15.54,3.79,28.89,7.81,43,4.42,15.52,9,31.58,9,52.52C414.86,395.94,395.71,403.86,361.88,415.22Z"/><path class="cls-2" d="M422.68,216.61a63.29,63.29,0,0,0-9.55-17.91,151.64,151.64,0,0,0-14.34-15.53s-16.42,10.15-31.2,3a71,71,0,0,1-23.13-17.92s-16,14.83-31.8,14.92c-15.77-.09-31.8-14.92-31.8-14.92a71,71,0,0,1-23.13,17.92c-14.78,7.16-31.21-3-31.21-3a152.19,152.19,0,0,0-14.33,15.53,63,63,0,0,0-9.55,17.91,95.75,95.75,0,0,1,16.72,53.14c0,31.05-16.72,54.34-16.72,95.54S235.35,413.66,270,425.6c31,10.7,43.46,34,43.46,34s11.64-23.34,42.68-34c34.63-11.94,66.72-19.11,66.72-60.31S406,300.8,406,269.75A96,96,0,0,1,422.68,216.61Z"/><path class="cls-1" d="M248.84,269.76H245.1V266.5H243v11.06h2.11V281h-9.48v-3.39h2.09V266.5h-2.19v3.26h-3.75v-6.63h17.1Z"/><path class="cls-1" d="M259.39,263.13v3.37h-1.58v3.84h4.84V266.5h-1.5v-3.37h8.28v3.37H268v11.08h1.48V281h-8.28v-3.37h1.5v-3.85h-4.84v3.85h1.58V281h-8.26v-3.37h1.4V266.5h-1.4v-3.37Z"/><path class="cls-1" d="M287.34,263.13v5.63h-4.41V266.5h-4.07V270h4.84v3.39h-4.84v4.16h4.07v-2.37h4.41V281H272v-3.39h1.61V266.5H272v-3.37Z"/><path class="cls-1" d="M305.18,275.19c.05-.72.74-3.9,1.25-6.33l1.27-5.73H313l1.61,7c.35,1.66.63,3.75.76,5h.13c.1-1.15.53-3.8.76-4.87l.87-3.88h-1.4v-3.31H323v3.31h-1.4L317.82,281h-6l-1.53-6.07c-.23-.87-.51-2.37-.64-3.16h-.1c-.1.76-.43,2.37-.61,3.11L307.34,281h-5.91l-3.36-14.51h-1.43v-3.31h8.41v3.31h-1.48l.66,3.72c.28,1.23.72,4.26.82,5Z"/><path class="cls-1" d="M333.13,263.13v3.37h-1.58v11.06h1.58V281h-8.46v-3.39h1.6V266.5h-1.6v-3.37Z"/><path class="cls-1" d="M353.51,266.42V281H348l-6.5-9.71v6.42h2V281h-7.83v-3.29h1.51V266.42H335.7v-3.29H343l6.25,9.35v-6.06h-1.74v-3.29h7.68v3.29Z"/><path class="cls-1" d="M357.74,277.56h1.58V266.5h-1.58v-3.37h7.77c6.17,0,9.69,3.8,9.69,8.67,0,5.81-3.52,9.15-9.79,9.15h-7.67Zm7.77,0c2.7-.05,3.83-2.58,3.83-5.76,0-2.73-1.13-5.3-3.83-5.3h-1v11.06Z"/><path class="cls-1" d="M386.23,271.16a15,15,0,0,1,.94-2.19l1.4-2.58h-1.4v-3.26H394v3.26h-1.38l-4.71,8.29v2.95h1.42V281h-8.15v-3.32h1.45v-3l-4.94-8.24h-1.25v-3.26h8.71v3.26h-1.32l1.48,2.7c.15.49.69,1.64.79,2.07Z"/><path class="cls-1" d="M272.59,329.4a25.82,25.82,0,0,1-19.07,8.87c-13.34,0-22.21-8.56-22.21-22.59,0-14.47,10.88-23.15,19.13-23.15,6.29,0,9.12,3.52,9.69,4.28l1.45-3.53h9.87v17.87H260.19c-.19-4.09-2.2-7.92-6.67-7.92s-7.49,5.6-7.49,12.45c0,6.23,3.21,11.83,9.19,11.83,5.28,0,9.44-5.53,10-6.16Z"/><path class="cls-1" d="M299.14,293.28v8.31h-3.9V328.9h3.9v8.37H278.25V328.9h4V301.59h-4v-8.31Z"/><path class="cls-1" d="M347,309.64h-9.25v-8.05h-5.28V328.9h5.22v8.37H314.3V328.9h5.16V301.59h-5.41v8.05H304.8V293.28H347Z"/><path class="cls-1" d="M374.58,313.1a38.34,38.34,0,0,1,2.33-5.41l3.46-6.35h-3.46v-8.06h16.93v8.06h-3.4L378.8,321.79v7.3h3.52v8.18H362.19v-8.18h3.58v-7.43l-12.21-20.32h-3.08v-8.06H372v8.06h-3.27l3.65,6.67c.38,1.19,1.7,4,1.95,5.09Z"/><polygon class="cls-1" points="226.48 365.25 228.92 372.71 236.76 372.73 230.43 377.35 232.84 384.82 226.48 380.22 220.12 384.82 222.52 377.35 216.19 372.73 224.03 372.71 226.48 365.25"/><polygon class="cls-1" points="255.5 365.25 257.94 372.71 265.78 372.73 259.45 377.35 261.86 384.82 255.5 380.22 249.14 384.82 251.54 377.35 245.21 372.73 253.05 372.71 255.5 365.25"/><polygon class="cls-1" points="284.51 365.25 286.96 372.71 294.8 372.73 288.47 377.35 290.87 384.82 284.51 380.22 278.16 384.82 280.56 377.35 274.23 372.73 282.07 372.71 284.51 365.25"/><polygon class="cls-1" points="313.54 365.25 315.98 372.71 323.82 372.73 317.49 377.35 319.89 384.82 313.54 380.22 307.18 384.82 309.58 377.35 303.25 372.73 311.09 372.71 313.54 365.25"/><polygon class="cls-1" points="342.55 365.25 345 372.71 352.84 372.73 346.51 377.35 348.91 384.82 342.55 380.22 336.19 384.82 338.6 377.35 332.27 372.73 340.11 372.71 342.55 365.25"/><polygon class="cls-1" points="371.57 365.25 374.01 372.71 381.86 372.73 375.52 377.35 377.93 384.82 371.57 380.22 365.21 384.82 367.62 377.35 361.28 372.73 369.13 372.71 371.57 365.25"/><polygon class="cls-1" points="400.59 365.25 403.03 372.71 410.88 372.73 404.55 377.35 406.95 384.82 400.59 380.22 394.23 384.82 396.63 377.35 390.3 372.73 398.14 372.71 400.59 365.25"/><polygon class="cls-1" points="225.48 214.36 227.92 221.81 235.76 221.83 229.43 226.46 231.84 233.92 225.48 229.33 219.12 233.92 221.52 226.46 215.19 221.83 223.03 221.81 225.48 214.36"/><polygon class="cls-1" points="254.5 214.36 256.94 221.81 264.78 221.83 258.45 226.46 260.86 233.92 254.5 229.33 248.14 233.92 250.54 226.46 244.21 221.83 252.05 221.81 254.5 214.36"/><polygon class="cls-1" points="283.51 214.36 285.96 221.81 293.8 221.83 287.47 226.46 289.87 233.92 283.51 229.33 277.16 233.92 279.56 226.46 273.23 221.83 281.07 221.81 283.51 214.36"/><polygon class="cls-1" points="312.54 214.36 314.98 221.81 322.82 221.83 316.49 226.46 318.89 233.92 312.54 229.33 306.18 233.92 308.58 226.46 302.25 221.83 310.09 221.81 312.54 214.36"/><polygon class="cls-1" points="341.55 214.36 344 221.81 351.84 221.83 345.51 226.46 347.91 233.92 341.55 229.33 335.19 233.92 337.6 226.46 331.27 221.83 339.11 221.81 341.55 214.36"/><polygon class="cls-1" points="370.57 214.36 373.01 221.81 380.86 221.83 374.52 226.46 376.93 233.92 370.57 229.33 364.21 233.92 366.62 226.46 360.28 221.83 368.13 221.81 370.57 214.36"/><polygon class="cls-1" points="399.59 214.36 402.03 221.81 409.88 221.83 403.55 226.46 405.95 233.92 399.59 229.33 393.23 233.92 395.63 226.46 389.3 221.83 397.14 221.81 399.59 214.36"/><path class="cls-1" d="M411.84,269.75c0-28.6,15.33-49.45,15.48-49.65l1.79-2.38-.89-2.85a69.26,69.26,0,0,0-10.53-19.76,155.17,155.17,0,0,0-15-16.2l-3.23-3-3.74,2.27c-.08.05-7.8,4.69-16.59,4.69a20.42,20.42,0,0,1-9-2A66,66,0,0,1,349,164.68l-3.88-5L340.52,164c-.14.13-14.61,13.3-27.83,13.38-13.28-.08-27.75-13.25-27.89-13.38l-4.62-4.26-3.89,4.95a66.18,66.18,0,0,1-21.1,16.26,20.46,20.46,0,0,1-9.05,2c-8.78,0-16.51-4.64-16.57-4.68l-3.75-2.32-3.23,3a154,154,0,0,0-15,16.2,68.82,68.82,0,0,0-10.53,19.77l-.89,2.85,1.8,2.38a90.07,90.07,0,0,1,15.54,49.64c0,13.62-3.52,26.07-7.25,39.26-4.44,15.66-9.47,33.42-9.47,56.28,0,41.91,31.84,52.57,62.62,62.87,2.86,1,5.74,1.92,8.64,2.92,28.15,9.71,40,30.82,40.23,31.29l5.29,9.93,5-10.07c.11-.22,10.91-21.33,39.38-31.15,2.77-.95,5.53-1.87,8.25-2.79,32.08-10.77,62.38-20.94,62.38-63,0-22.86-5.05-40.62-9.51-56.29C415.38,295.82,411.84,283.37,411.84,269.75ZM227.58,190.23a46.2,46.2,0,0,0,18.56,4.29,32.14,32.14,0,0,0,14.12-3.14,79.44,79.44,0,0,0,21.18-15.15c6.38,4.84,18.64,12.66,31.25,12.74,12.57-.08,24.81-7.9,31.19-12.74a79.44,79.44,0,0,0,21.18,15.15,32.13,32.13,0,0,0,14.11,3.14,46.21,46.21,0,0,0,18.57-4.29,139.18,139.18,0,0,1,10.82,12.05,48.38,48.38,0,0,1,3.67,5.42H213.08a50.28,50.28,0,0,1,3.67-5.42A139.06,139.06,0,0,1,227.58,190.23ZM212.52,208.7H412.8a61.76,61.76,0,0,1,3.4,7.1,102.49,102.49,0,0,0-11.48,24.9H220.66a102.56,102.56,0,0,0-11.54-24.91A60.1,60.1,0,0,1,212.52,208.7Zm4.95,103.47c3.95-14,7.69-27.19,7.69-42.42a97.57,97.57,0,0,0-3.9-27.05H404.12a98,98,0,0,0-3.88,27.05c0,15.24,3.75,28.45,7.73,42.42,3.83,13.49,7.77,27.38,8.8,44.53H208.7C209.73,339.55,213.65,325.65,217.47,312.17Zm145.1,105.12q-4.14,1.38-8.34,2.82a86.33,86.33,0,0,0-40.9,29.09,89.86,89.86,0,0,0-41.46-29.09c-2.93-1-5.85-2-8.73-2.95-30.56-10.23-54.7-18.31-54.7-51.87,0-2.26.06-4.44.16-6.59H416.87c.1,2.15.16,4.33.16,6.59C417,399,394.19,406.67,362.57,417.29Z"/></g></g></svg>