<svg xmlns="http://www.w3.org/2000/svg" viewBox="0 0 229.96 30.16"><defs><style>.cls-1{fill:#020303;}</style></defs><title>markosotirovicLogo</title><g id="Layer_2" data-name="Layer 2"><g id="Layer_1-2" data-name="Layer 1"><path class="cls-1" d="M35.55,30.16H34.11l-8.92-8.91h1.45V0l8.91,8.91ZM25.19,10.36H22.92v19.8H21.54l-8.91-8.91H14V1.45H25.19ZM12.63,12.63a7.65,7.65,0,0,0-2.3,5.46V30.16H8.91L0,21.25H1.41V9.18A7.41,7.41,0,0,1,3.73,3.75a7.5,7.5,0,0,1,5.45-2.3h3.45Z"/><path class="cls-1" d="M61.35,27h-.94V18.5a4,4,0,0,0-8.09,0V27h-1V18.5a4,4,0,1,0-8.08,0V27h-.95V13.83h.95v1.78a4.6,4.6,0,0,1,4-2.12,4.82,4.82,0,0,1,4.59,2.91,4.58,4.58,0,0,1,4.44-2.91,4.84,4.84,0,0,1,5,5Z"/><path class="cls-1" d="M70.31,14.46a5.82,5.82,0,0,0-5.62,6,5.62,5.62,0,1,0,11.23,0,5.81,5.81,0,0,0-5.61-6M76.87,27h-1V23.8a6.3,6.3,0,0,1-5.61,3.47,6.7,6.7,0,0,1-6.56-6.84,6.76,6.76,0,0,1,6.56-6.94A6.3,6.3,0,0,1,75.92,17V13.83h1Z"/><path class="cls-1" d="M91.59,20h-1v-.84a4.36,4.36,0,0,0-4.56-4.65,4.47,4.47,0,0,0-4.6,4.65V27h-.94V13.83h.94v2.24a5.21,5.21,0,0,1,4.6-2.58,5.34,5.34,0,0,1,5.51,5.62Z"/><polygon class="cls-1" points="94.96 22.58 94.96 26.97 94.01 26.97 94.01 7.98 94.96 7.98 94.96 21.28 102.66 13.83 104.02 13.83 99.04 18.62 104.65 26.97 103.5 26.97 98.35 19.31 94.96 22.58"/><path class="cls-1" d="M117.16,20.43a5.63,5.63,0,1,0-11.23,0,5.62,5.62,0,1,0,11.23,0m1,0a6.58,6.58,0,1,1-13.15,0,6.58,6.58,0,1,1,13.15,0"/><path class="cls-1" d="M137.59,25.74a6,6,0,0,1-4.33,1.53c-3.32,0-5.67-1.45-6.1-4.13h.94c.46,2.12,2.35,3.24,5.13,3.24a5.11,5.11,0,0,0,3.67-1.3,2.35,2.35,0,0,0,.64-1.81c0-1.61-1.35-2.43-4.56-2.89-2.28-.33-5.08-.71-5.13-3.31,0-1.79,1.68-3.58,5-3.58,2.91,0,4.83,1.31,5.39,3.68h-1c-.54-1.76-2-2.78-4.39-2.78s-4.06,1.15-4,2.68,1.4,2,4.31,2.4c2.73.4,5.26,1.12,5.38,3.77a3.43,3.43,0,0,1-.92,2.5"/><path class="cls-1" d="M152.37,20.43a5.63,5.63,0,1,0-11.23,0,5.62,5.62,0,1,0,11.23,0m1,0a6.58,6.58,0,1,1-13.14,0,6.58,6.58,0,1,1,13.14,0"/><path class="cls-1" d="M166.22,22a5.28,5.28,0,1,1-10.56,0V11h.94v2.81h9.16v.94H156.6V22a4.34,4.34,0,0,0,8.68,0V20.38h.94Z"/><path class="cls-1" d="M169.31,27h.94V13.83h-.94Zm0-15.36h.94V9.26h-.94Z"/><path class="cls-1" d="M185.1,20h-.94v-.84a4.37,4.37,0,0,0-4.57-4.65A4.47,4.47,0,0,0,175,19.11V27h-.95V13.83H175v2.24a5.2,5.2,0,0,1,4.59-2.58,5.34,5.34,0,0,1,5.51,5.62Z"/><path class="cls-1" d="M198.93,20.43a5.63,5.63,0,1,0-11.22,0,5.62,5.62,0,1,0,11.22,0m1,0a6.58,6.58,0,1,1-13.14,0,6.58,6.58,0,1,1,13.14,0"/><polygon class="cls-1" points="206.54 26.97 205.52 26.97 200.46 13.83 201.48 13.83 206.03 25.67 210.57 13.83 211.59 13.83 206.54 26.97"/><path class="cls-1" d="M213.73,27h.94V13.83h-.94Zm0-15.36h.94V9.26h-.94Z"/><path class="cls-1" d="M223.89,27.27a6.7,6.7,0,0,1-6.56-6.84,6.76,6.76,0,0,1,6.56-6.94A6.24,6.24,0,0,1,230,17.88h-1a5.3,5.3,0,0,0-5.05-3.42,5.82,5.82,0,0,0-5.62,6,5.78,5.78,0,0,0,5.62,5.9A5.19,5.19,0,0,0,229,22.88h1a6.21,6.21,0,0,1-6.07,4.39"/></g></g></svg>